<?xml version="1.0" standalone="no"?>
<!DOCTYPE svg PUBLIC "-//W3C//DTD SVG 20010904//EN"
 "http://www.w3.org/TR/2001/REC-SVG-20010904/DTD/svg10.dtd">
<svg version="1.0" xmlns="http://www.w3.org/2000/svg"
 width="840.000000pt" height="840.000000pt" viewBox="0 0 840.000000 840.000000"
 preserveAspectRatio="xMidYMid meet">
<metadata>
Created by potrace 1.14, written by Peter Selinger 2001-2017
</metadata>
<g transform="translate(0.000000,840.000000) scale(0.100000,-0.100000)"
fill="#000000" stroke="none">
<path d="M6090 7793 c0 -2 7 -14 15 -27 14 -21 14 -24 0 -29 -8 -4 -15 -13
-15 -21 0 -9 -7 -12 -20 -9 -26 7 -25 28 2 47 19 14 20 16 4 22 -9 4 -29 1
-42 -5 -25 -11 -25 -14 -19 -75 7 -63 1 -80 -30 -81 -13 0 -19 -32 -9 -53 4
-9 6 -24 5 -34 -3 -24 20 -34 34 -15 7 10 21 17 31 17 28 0 45 15 39 32 -8 19
30 56 65 65 51 12 76 53 48 81 -18 18 -28 14 -28 -12 0 -27 -29 -44 -42 -24
-10 17 -10 26 2 33 6 4 8 11 5 16 -4 5 10 9 29 9 36 0 49 16 21 26 -8 4 -15
14 -15 24 0 14 -9 17 -40 17 -22 0 -40 -2 -40 -4z m8 -132 c3 -8 -1 -12 -9 -9
-7 2 -15 10 -17 17 -3 8 1 12 9 9 7 -2 15 -10 17 -17z"/>
<path d="M5527 7726 c-26 -7 -59 -24 -73 -37 -21 -20 -36 -24 -92 -25 -72 -1
-91 -8 -194 -74 -40 -26 -73 -40 -95 -40 -18 0 -33 -4 -33 -9 0 -11 55 -31 87
-31 37 0 118 46 161 91 35 36 44 40 78 37 27 -2 39 -8 39 -18 0 -8 -6 -14 -13
-12 -24 5 -52 -18 -52 -44 0 -26 43 -74 66 -74 7 0 22 -13 33 -29 29 -40 114
-81 168 -81 120 0 180 89 121 177 -70 103 -240 73 -202 -36 12 -34 54 -42 54
-11 0 13 -8 24 -20 27 -36 10 -18 49 25 53 70 8 125 -33 125 -93 0 -87 -125
-110 -218 -40 l-33 25 20 22 c12 12 21 32 21 45 0 27 -25 78 -42 83 -19 7 -1
36 34 55 24 13 55 18 113 18 67 0 88 -5 131 -27 54 -28 102 -77 131 -131 26
-49 21 -128 -16 -226 -17 -47 -29 -86 -26 -89 2 -2 44 36 92 86 100 103 133
118 240 109 78 -8 150 -43 196 -97 36 -43 61 -110 55 -151 -3 -22 -8 -24 -60
-27 -48 -2 -61 -7 -78 -29 -11 -14 -20 -31 -20 -38 0 -10 -9 -11 -37 -5 -103
24 -162 133 -99 187 33 28 80 30 123 3 31 -19 50 -56 41 -82 -3 -8 -21 -13
-44 -13 -50 0 -56 -28 -7 -33 37 -4 83 33 83 65 0 35 -40 84 -85 104 -78 35
-154 4 -176 -71 -10 -33 -9 -44 10 -84 28 -56 94 -103 160 -111 25 -3 58 -13
73 -21 60 -32 133 -1 108 46 -18 34 3 47 30 18 17 -18 20 -31 16 -58 -3 -19
-9 -66 -12 -105 -5 -63 -3 -74 18 -104 25 -37 110 -86 134 -77 19 7 18 26 -2
26 -10 0 -14 6 -11 15 9 22 -9 28 -27 9 -13 -13 -20 -14 -31 -4 -12 10 -15 37
-15 117 0 113 -13 159 -56 204 -22 23 -23 29 -13 57 20 57 -36 185 -100 231
-65 46 -122 65 -206 65 -90 0 -125 -13 -189 -73 -36 -33 -38 -34 -32 -11 30
104 15 177 -51 251 -87 96 -199 129 -326 95z m-69 -128 c15 -15 16 -65 1 -74
-16 -9 -29 15 -29 54 0 34 8 40 28 20z m-55 -60 c3 -10 1 -18 -3 -18 -10 0
-40 40 -40 52 0 15 39 -16 43 -34z m967 -417 c0 -14 -25 -31 -58 -37 -36 -7
-40 1 -15 28 16 18 73 26 73 9z m1 -71 c6 0 7 -4 4 -10 -8 -13 -52 -13 -59 -1
-7 11 14 21 32 15 8 -2 18 -4 23 -4z m106 -157 c-3 -10 -5 -2 -5 17 0 19 2 27
5 18 2 -10 2 -26 0 -35z"/>
<path d="M5830 7700 c0 -5 18 -28 40 -50 26 -26 44 -56 52 -85 7 -25 16 -45
20 -45 14 0 9 80 -7 109 -26 51 -105 104 -105 71z"/>
<path d="M4990 7581 c0 -28 40 -39 57 -15 17 23 17 34 -2 34 -8 0 -15 -5 -15
-12 0 -9 -3 -9 -12 0 -17 17 -28 15 -28 -7z"/>
<path d="M4806 7564 c-103 -22 -125 -30 -115 -37 5 -3 272 15 277 19 2 1 1 12
-3 23 -8 26 -19 26 -159 -5z"/>
<path d="M6051 7513 c-42 -22 -57 -50 -20 -37 29 11 107 10 167 -1 51 -9 57 7
11 30 -49 26 -118 29 -158 8z"/>
<path d="M1841 6966 c-74 -12 -136 -26 -138 -31 -1 -6 1 -17 6 -24 8 -13 29
-9 133 24 68 21 127 42 133 47 5 4 7 8 5 7 -3 -1 -65 -11 -139 -23z"/>
<path d="M1650 6921 c0 -5 -9 -7 -20 -4 -27 7 -25 -11 3 -30 21 -14 21 -15 3
-23 -11 -4 -76 1 -145 10 -131 19 -181 15 -226 -18 -16 -12 -25 -12 -60 1 -62
22 -194 2 -242 -36 -42 -35 -63 -82 -63 -145 0 -79 27 -133 98 -196 l57 -51
-44 16 c-117 41 -234 24 -302 -44 -39 -39 -64 -106 -56 -148 9 -50 -18 -14
-34 43 -8 32 -20 68 -26 79 -6 11 -17 40 -24 65 -7 25 -25 57 -40 72 -15 15
-24 30 -21 33 3 3 -4 8 -16 12 -19 5 -22 12 -22 54 0 59 -16 107 -31 92 -13
-13 -16 -49 -6 -86 5 -19 4 -26 -2 -22 -23 14 -59 -27 -80 -91 -11 -35 -21
-74 -21 -85 0 -11 -9 -32 -20 -47 -11 -15 -24 -41 -29 -59 l-9 -32 39 41 c21
23 39 50 39 60 0 24 9 23 37 -3 18 -18 25 -20 38 -9 22 19 20 92 -5 121 -20
24 -20 24 -35 5 -15 -19 -15 -19 -15 5 0 14 6 33 13 43 13 18 15 17 35 -8 19
-25 27 -52 49 -171 7 -36 8 -33 13 37 6 89 20 113 49 83 11 -11 22 -33 26 -50
5 -28 5 -29 -7 -7 -33 65 -64 -26 -32 -94 16 -33 20 -36 50 -31 31 5 33 4 39
-34 4 -23 16 -46 31 -58 13 -10 21 -20 19 -23 -2 -2 7 -22 21 -43 14 -22 23
-31 19 -21 -3 12 11 3 42 -25 35 -32 48 -51 49 -74 1 -50 32 -101 115 -190 86
-93 98 -118 49 -108 -19 3 -30 1 -30 -6 0 -6 4 -11 9 -11 5 0 7 -9 4 -20 -8
-29 19 -25 46 6 13 15 25 43 28 63 4 31 -1 43 -36 88 -23 29 -64 68 -92 88
-51 38 -69 62 -69 90 0 27 44 15 48 -13 4 -27 45 -46 80 -37 13 3 31 19 40 35
9 17 22 30 29 30 20 0 71 59 78 90 26 119 -125 232 -235 175 -58 -30 -68 -96
-21 -143 47 -46 131 -50 131 -6 0 22 -31 30 -45 11 -18 -24 -41 -21 -64 9 -44
56 -13 108 64 106 54 0 101 -31 121 -78 20 -48 17 -68 -12 -103 -30 -36 -38
-38 -71 -11 -31 24 -99 27 -131 5 -19 -14 -24 -14 -46 0 -33 22 -76 90 -83
130 -8 52 5 102 38 140 71 81 193 86 372 16 59 -24 113 -41 119 -39 7 3 -29
32 -79 67 -129 88 -180 141 -199 209 -13 44 -14 62 -5 92 25 83 96 130 197
129 83 -1 96 -8 99 -54 2 -29 10 -46 34 -67 17 -15 40 -28 51 -28 50 0 23 -91
-34 -115 -84 -35 -162 1 -190 87 -8 27 31 68 65 68 50 0 69 -16 62 -50 -5 -26
-3 -30 16 -30 56 0 22 76 -44 98 -69 23 -135 -16 -135 -81 0 -90 109 -161 212
-138 60 14 108 67 108 120 0 21 6 51 14 66 17 33 9 62 -26 88 -20 15 -30 17
-45 8 -14 -7 -23 -7 -31 1 -18 18 -15 25 16 36 22 8 41 5 83 -10 30 -11 90
-22 135 -25 79 -5 82 -5 112 23 37 33 55 94 28 94 -9 0 -16 -4 -16 -9z m-346
-154 c31 -41 33 -57 6 -50 -24 6 -50 40 -50 65 0 27 16 22 44 -15z m76 -19 c0
-30 -25 -15 -28 17 -3 25 -2 27 12 16 9 -8 16 -22 16 -33z m-960 -325 c0 -18
-5 -33 -11 -33 -7 0 -8 11 -4 29 3 17 2 32 -5 36 -5 3 -7 11 -4 17 10 16 24
-12 24 -49z m118 -35 c-3 -16 -1 -31 4 -34 4 -3 8 -11 8 -17 0 -7 -7 -3 -15 7
-18 23 -21 91 -4 80 6 -3 9 -20 7 -36z m383 -308 c10 -6 19 -15 19 -20 0 -13
-71 -13 -90 0 -13 9 -13 11 0 20 20 13 46 13 71 0z m29 -65 c0 -10 -10 -15
-32 -15 -31 1 -32 1 -14 15 25 19 46 19 46 0z"/>
<path d="M545 6741 c-3 -6 -15 -11 -26 -11 -20 0 -26 -15 -10 -24 5 -3 7 -15
4 -27 -5 -18 -2 -19 23 -13 43 10 45 13 41 47 -3 32 -20 46 -32 28z"/>
<path d="M603 6743 c-19 -7 -16 -23 5 -23 10 0 27 -6 37 -14 19 -14 19 -15 2
-33 -9 -11 -17 -27 -17 -36 0 -24 -43 -22 -65 3 -25 27 -38 15 -20 -19 17 -34
33 -41 90 -41 52 0 95 -14 113 -38 17 -22 122 -27 122 -6 0 8 -7 17 -15 20 -8
4 -15 14 -15 23 0 24 -20 41 -47 41 -25 0 -93 55 -93 75 0 31 -63 62 -97 48z
m75 -104 c-2 -6 -8 -10 -13 -10 -5 0 -11 4 -13 10 -2 6 4 11 13 11 9 0 15 -5
13 -11z"/>
<path d="M842 6720 c-6 -11 -12 -39 -12 -63 0 -35 7 -51 36 -86 20 -23 38 -40
41 -37 2 2 -5 23 -17 47 -19 35 -21 52 -16 101 5 44 4 58 -6 58 -7 0 -19 -9
-26 -20z"/>
<path d="M6570 6709 c0 -6 20 -43 44 -82 24 -40 53 -92 65 -115 41 -80 34 -34
-14 87 -42 108 -49 121 -71 121 -13 0 -24 -5 -24 -11z"/>
<path d="M5250 6664 c-91 -18 -383 -76 -649 -128 -266 -53 -485 -97 -486 -98
-2 -2 -116 -344 -255 -761 -139 -418 -256 -755 -260 -750 -5 4 -126 278 -270
608 -144 330 -270 619 -280 641 -10 23 -22 44 -26 47 -5 2 -63 -6 -129 -19
-387 -75 -770 -149 -905 -175 -85 -16 -158 -33 -161 -37 -4 -4 19 -65 51 -137
167 -378 598 -1359 1025 -2335 136 -311 258 -591 272 -622 14 -32 29 -58 33
-58 4 0 180 34 391 76 211 41 477 93 592 116 132 26 207 45 207 53 0 6 -68
166 -151 356 -84 189 -214 486 -290 659 -76 173 -136 316 -134 318 3 4 550
-362 1353 -904 l332 -225 243 46 c133 26 368 71 522 101 154 30 363 71 465 90
102 20 188 39 192 42 4 4 -422 283 -947 621 -526 337 -1002 644 -1060 682
l-104 68 18 53 c20 57 280 753 497 1331 74 196 134 362 134 367 0 16 -42 11
-220 -26z"/>
<path d="M585 6680 c-4 -7 -3 -16 3 -22 14 -14 45 -2 40 15 -6 16 -34 21 -43
7z"/>
<path d="M733 6504 c-28 -7 -73 -49 -73 -69 0 -22 13 -19 67 15 36 23 59 30
97 30 37 0 47 3 39 11 -13 13 -94 20 -130 13z"/>
<path d="M164 5994 c-9 -21 -18 -54 -18 -73 -1 -19 -7 -36 -14 -39 -6 -2 -24
-27 -39 -55 -22 -43 -27 -66 -27 -130 -1 -59 -4 -74 -12 -62 -15 20 -21 19
-33 -4 -16 -28 8 -82 34 -79 16 3 19 -2 17 -24 -4 -35 22 -125 59 -205 16 -34
29 -66 29 -70 0 -4 14 -28 30 -53 16 -25 30 -54 30 -64 0 -21 61 -159 67 -153
2 3 -10 40 -27 83 -16 43 -30 87 -30 97 0 23 -16 55 -43 85 -11 12 -15 22 -9
22 17 0 15 123 -3 166 -20 49 -48 43 -55 -11 l-5 -40 -7 43 c-10 67 2 96 41
100 l34 3 -36 37 c-41 42 -67 106 -67 166 0 49 14 79 23 47 3 -12 1 -24 -4
-27 -28 -17 8 -128 39 -122 31 6 26 152 -6 185 -12 12 -14 17 -4 21 26 8 43
35 38 58 -4 13 1 47 10 74 20 61 11 79 -12 24z m-24 -316 c-1 -22 -1 -22 -15
-4 -8 11 -15 28 -15 39 0 16 2 17 15 3 8 -8 15 -25 15 -38z m-20 -119 c0 -5
-4 -9 -10 -9 -5 0 -10 7 -10 16 0 8 5 12 10 9 6 -3 10 -10 10 -16z m50 -160
c0 -4 -7 -9 -15 -13 -11 -4 -15 2 -15 27 1 30 1 31 15 13 8 -11 15 -23 15 -27z
m-21 -64 c0 -5 -6 -1 -14 9 -8 11 -15 24 -15 30 0 5 7 1 15 -10 8 -10 14 -23
14 -29z"/>
<path d="M968 5653 c-27 -7 -22 -28 38 -148 29 -60 52 -99 50 -85 -7 47 -61
240 -66 239 -3 -1 -13 -3 -22 -6z"/>
<path d="M7760 4122 c0 -4 11 -46 24 -92 13 -47 28 -103 33 -125 8 -35 12 -40
33 -37 14 2 27 5 29 7 4 4 -110 255 -115 255 -2 0 -4 -4 -4 -8z"/>
<path d="M7843 3825 c-30 -34 -37 -77 -20 -112 13 -25 91 -103 161 -160 16
-13 26 -32 26 -47 0 -34 -27 -34 -40 -1 -21 56 -102 57 -128 2 -7 -15 -19 -27
-26 -27 -20 0 -66 -53 -75 -88 -28 -97 80 -204 190 -189 111 15 125 141 21
184 -41 17 -85 8 -90 -18 -5 -26 30 -33 49 -11 12 16 20 18 35 10 29 -16 44
-39 44 -68 0 -40 -29 -60 -84 -60 -43 0 -53 5 -87 39 -32 32 -39 46 -39 78 0
40 30 93 52 93 5 0 21 -9 35 -20 32 -25 94 -26 134 -3 28 17 29 17 60 -12 85
-81 96 -190 26 -262 -74 -78 -182 -82 -365 -13 -62 23 -116 40 -119 36 -8 -7
-17 0 95 -76 137 -93 192 -165 192 -253 0 -92 -87 -166 -197 -167 -74 0 -103
13 -103 47 0 43 -34 91 -72 101 -81 21 -17 132 76 132 64 0 136 -56 136 -106
0 -29 -36 -64 -66 -64 -25 0 -74 20 -74 30 0 3 5 11 11 17 15 15 3 33 -21 33
-28 0 -33 -16 -16 -48 27 -53 116 -71 165 -34 20 15 27 29 29 66 3 43 0 50
-35 86 -45 44 -106 65 -164 55 -71 -12 -128 -82 -116 -142 3 -16 -1 -32 -9
-40 -40 -41 19 -132 67 -102 7 4 22 3 33 -3 19 -10 19 -11 1 -24 -26 -19 -59
-17 -133 6 -36 11 -92 20 -127 20 -54 0 -68 -4 -94 -26 -17 -14 -29 -30 -26
-34 3 -5 1 -11 -5 -15 -19 -12 -11 -45 10 -45 11 0 20 4 20 10 0 5 7 7 15 4
22 -9 18 13 -5 29 -44 31 15 35 155 12 99 -17 153 -13 203 16 24 14 38 16 55
9 74 -31 184 -41 198 -18 4 7 9 6 13 -1 10 -15 57 -14 97 3 33 14 34 14 46
-15 16 -40 52 -46 107 -20 50 25 64 47 42 69 -11 12 -21 12 -48 3 -30 -10 -31
-9 -14 4 42 32 126 27 126 -8 0 -6 -28 -37 -62 -69 -35 -32 -60 -58 -56 -58 4
0 38 16 77 35 107 54 190 49 163 -10 -14 -30 -43 -35 -35 -5 7 27 -19 35 -68
21 -42 -13 -73 -49 -63 -74 3 -10 23 -19 50 -23 l44 -6 -21 -30 c-14 -20 -18
-33 -12 -39 6 -6 9 -31 6 -57 l-4 -47 17 30 c10 17 18 45 19 63 2 19 11 46 22
60 27 38 73 129 73 145 0 8 -11 26 -24 40 l-24 26 36 12 c39 12 62 33 62 57 0
25 -70 4 -102 -31 -24 -25 -31 -28 -38 -16 -5 8 -17 14 -27 15 -10 0 -30 4
-45 8 -28 8 -199 -29 -268 -58 -18 -7 -41 -11 -52 -8 -16 4 -14 8 15 28 41 28
77 96 77 146 0 78 -48 163 -120 213 -22 16 -39 30 -37 32 2 2 24 -4 48 -13 62
-23 163 -23 221 -1 87 34 140 119 124 200 -11 58 -57 138 -95 165 -27 21 -35
33 -33 52 5 45 -27 100 -108 186 -83 88 -103 130 -55 118 15 -4 25 -2 25 5 0
6 -5 11 -11 11 -8 0 -9 4 0 13 11 14 5 27 -13 27 -6 0 -21 -12 -33 -25z m80
-310 c1 -6 -11 -11 -28 -13 -29 -2 -29 -2 -10 13 20 16 35 16 38 0z m52 -55
c18 -7 18 -9 -9 -19 -31 -13 -77 -3 -84 17 -4 14 61 15 93 2z m-441 -671 c17
-13 26 -30 26 -47 l-1 -27 -34 37 c-51 55 -45 79 9 37z m-62 -45 c-9 -16 -10
-16 -21 5 -16 28 -4 48 16 28 11 -11 12 -20 5 -33z m618 -74 c0 -13 -40 -39
-65 -42 -11 -2 -20 2 -20 7 0 6 8 9 18 8 9 -2 17 4 17 11 0 13 13 20 43 25 4
0 7 -3 7 -9z m105 -20 c-3 -5 -11 -10 -16 -10 -6 0 -7 5 -4 10 3 6 11 10 16
10 6 0 7 -4 4 -10z m33 -72 c-3 -7 -15 -14 -27 -16 -15 -2 -21 -9 -17 -18 3
-9 -1 -14 -14 -14 -31 0 -23 27 15 48 27 15 48 15 43 0z"/>
<path d="M8125 3090 c-14 -23 -86 -50 -132 -50 -38 0 -44 -2 -34 -12 7 -8 38
-13 76 -13 71 0 117 24 123 64 4 22 -21 30 -33 11z"/>
<path d="M2113 3038 c2 -7 24 -64 48 -125 41 -106 45 -113 71 -113 16 0 28 3
28 6 0 3 -22 43 -49 88 -27 44 -57 98 -67 119 -10 20 -22 37 -27 37 -5 0 -7
-6 -4 -12z"/>
<path d="M7950 2985 c0 -7 7 -15 15 -19 8 -3 15 -12 15 -19 0 -20 33 -47 56
-47 24 0 79 -47 88 -75 8 -28 61 -58 86 -50 22 7 27 25 7 25 -7 0 -22 7 -34
15 l-22 15 22 35 c24 37 47 44 67 20 14 -16 40 -20 40 -6 0 5 -8 19 -19 32
-14 18 -33 24 -91 30 -59 7 -78 13 -96 33 -20 20 -32 24 -79 24 -37 0 -55 -5
-55 -13z m220 -100 c0 -8 -4 -15 -9 -15 -13 0 -22 16 -14 24 11 11 23 6 23 -9z"/>
<path d="M7910 2986 c0 -3 10 -21 21 -41 20 -33 25 -74 16 -139 -4 -35 23 -28
39 10 19 46 8 96 -32 144 -23 26 -44 39 -44 26z"/>
<path d="M8200 2850 c0 -15 5 -20 18 -18 9 2 17 10 17 18 0 8 -8 16 -17 18
-13 2 -18 -3 -18 -18z"/>
<path d="M8270 2847 c-20 -10 -24 -19 -22 -42 4 -37 9 -42 24 -27 7 7 20 12
30 12 14 0 17 7 14 32 -4 38 -12 42 -46 25z"/>
<path d="M2225 2769 c-4 -6 2 -13 13 -16 14 -3 18 -10 14 -26 -5 -21 -5 -21
22 -3 44 29 49 16 50 -134 1 -79 5 -102 24 -138 13 -24 29 -45 37 -49 11 -4
13 -15 9 -47 -4 -22 -10 -48 -15 -56 -4 -10 4 -45 22 -90 16 -41 29 -83 29
-93 0 -23 24 -70 44 -87 13 -10 14 -16 5 -26 -30 -36 10 -213 44 -201 16 5 15
109 -1 115 -14 4 -16 32 -2 32 14 0 33 -78 34 -138 0 -56 -14 -76 -46 -66 -27
8 -22 -9 12 -41 16 -15 36 -48 45 -73 16 -50 20 -138 6 -146 -13 -9 -23 26
-11 38 21 21 6 99 -24 118 -17 11 -36 -12 -36 -43 0 -50 22 -133 39 -146 14
-10 13 -13 -11 -22 -23 -8 -28 -17 -28 -43 0 -18 -7 -58 -15 -88 -19 -70 -19
-71 6 -33 12 18 22 52 23 75 2 30 8 45 24 56 12 8 22 23 22 33 0 10 5 21 12
25 8 5 9 0 3 -17 -4 -13 -7 -41 -6 -62 1 -23 -3 -36 -10 -35 -11 3 -41 -47
-55 -92 -6 -21 -5 -23 8 -13 8 7 23 31 34 53 10 22 27 43 36 46 22 7 35 51 19
67 -18 18 -13 28 13 21 27 -6 110 32 141 66 15 16 17 25 8 38 -22 34 -123 4
-123 -37 0 -16 -18 -31 -36 -31 -13 0 0 30 24 52 59 56 138 74 206 48 38 -14
45 -5 18 23 -12 13 -22 30 -22 38 0 31 79 88 142 103 27 6 47 -7 28 -19 -8 -5
-8 -11 0 -20 14 -17 -24 -45 -62 -45 -34 0 -36 13 -6 34 28 20 42 20 34 1 -3
-9 0 -15 9 -15 20 0 19 29 0 36 -30 12 -95 -29 -95 -60 0 -16 40 -24 74 -15
46 13 119 76 111 97 -4 11 4 13 44 7 37 -5 59 -2 85 10 20 10 36 21 36 26 0
12 -13 12 -25 0 -6 -5 -44 -11 -85 -14 -41 -3 -100 -7 -130 -10 -56 -6 -165
-51 -201 -83 -19 -17 -20 -17 -26 4 -7 29 -62 30 -88 2 -21 -23 -13 -36 25
-42 l25 -4 -29 -13 c-17 -6 -36 -21 -43 -31 -8 -11 -22 -24 -33 -30 -17 -9
-19 -5 -22 55 -2 53 -1 62 9 49 7 -9 19 -14 28 -11 32 13 6 102 -27 91 -15 -4
-18 0 -18 28 -1 66 -45 207 -69 222 -6 4 -11 15 -11 25 0 9 -13 38 -30 64 -16
26 -30 59 -30 73 l0 26 41 -36 c52 -44 126 -69 204 -70 81 0 130 18 186 71
l46 43 -15 -65 c-15 -60 -14 -69 2 -122 36 -112 164 -203 287 -203 35 0 48 -3
43 -11 -5 -9 4 -10 32 -5 40 8 70 26 44 26 -8 1 2 10 23 21 21 11 40 26 43 33
3 9 26 13 72 13 72 -1 111 14 205 79 32 22 61 34 83 34 40 0 44 12 9 28 -61
28 -151 -5 -224 -82 -28 -29 -42 -36 -72 -36 -21 0 -40 4 -43 8 -7 11 11 38
20 30 14 -15 44 13 44 42 0 28 -38 70 -64 70 -6 0 -24 16 -40 36 -92 116 -304
91 -306 -36 0 -60 74 -130 138 -130 44 0 88 24 95 52 8 31 -14 72 -41 76 -29
4 -29 -22 0 -43 49 -33 -28 -72 -91 -45 -30 12 -61 57 -61 87 0 31 29 62 68
74 48 14 108 -1 151 -37 l31 -25 -22 -29 c-25 -34 -20 -64 17 -108 l25 -30
-26 -21 c-84 -66 -245 -46 -336 42 -84 82 -96 152 -48 299 16 51 27 94 24 97
-2 3 -26 -20 -52 -49 -99 -115 -131 -137 -211 -147 -96 -11 -210 35 -270 110
-29 35 -51 112 -41 146 6 23 10 25 56 22 55 -2 94 22 94 60 0 15 5 19 18 15 9
-2 28 -8 42 -11 74 -21 128 -107 101 -159 -27 -50 -102 -61 -150 -21 -36 31
-46 57 -31 86 9 15 15 18 23 10 6 -6 22 -11 35 -11 35 0 25 34 -11 38 -45 5
-77 -22 -77 -66 1 -105 149 -155 227 -77 33 33 35 39 30 81 -8 79 -83 147
-174 161 -21 3 -57 14 -79 24 -32 15 -47 17 -68 9 -32 -12 -43 -36 -28 -60 8
-14 8 -21 -2 -30 -23 -18 -59 36 -51 75 14 62 17 167 5 195 -12 29 -50 60 -76
64 -8 1 -20 8 -26 14 -15 15 -45 16 -53 1z m283 -288 c10 -6 9 -10 -7 -14 -27
-7 -63 2 -55 14 7 11 45 11 62 0z m32 -50 c0 -5 -7 -17 -16 -25 -19 -19 -78
-22 -72 -3 9 25 88 50 88 28z m850 -457 c21 -55 4 -86 -26 -46 -14 18 -18 54
-7 65 12 13 24 7 33 -19z m60 7 c5 -11 10 -26 9 -33 0 -10 -2 -10 -6 0 -2 6
-11 12 -19 12 -8 0 -14 9 -14 20 0 25 16 26 30 1z m-927 -110 c9 -34 -10 -45
-21 -12 -9 25 -8 31 2 31 8 0 16 -9 19 -19z m41 -162 c-3 -5 -10 -7 -15 -3 -5
3 -7 10 -3 15 3 5 10 7 15 3 5 -3 7 -10 3 -15z m-20 -115 c3 -9 6 -22 6 -31 0
-13 -2 -13 -15 1 -16 16 -20 46 -6 46 5 0 12 -7 15 -16z m266 6 c0 -13 -11
-13 -30 0 -12 8 -11 10 8 10 12 0 22 -4 22 -10z m-70 -88 c0 -5 -9 -17 -20
-27 -19 -17 -20 -17 -20 -1 0 13 -5 16 -22 11 -22 -6 -22 -6 -4 9 21 17 66 22
66 8z"/>
<path d="M6970 2584 c-136 -46 -135 -52 10 -29 157 25 151 23 138 51 -6 13
-14 23 -17 22 -3 0 -62 -20 -131 -44z"/>
<path d="M8074 2048 c-15 -24 -37 -53 -50 -65 -22 -20 -24 -37 -9 -74 5 -13 1
-15 -18 -12 -31 6 -133 -42 -148 -69 -16 -30 -4 -48 34 -48 36 0 87 32 87 55
0 11 20 25 36 25 15 0 -2 -33 -30 -58 -58 -51 -125 -62 -216 -36 l-25 7 23
-25 c12 -13 22 -34 22 -45 0 -28 -65 -81 -107 -89 -18 -3 -33 -10 -33 -14 0
-11 60 4 100 24 18 9 38 16 45 16 7 0 20 9 30 20 23 25 31 25 38 0 4 -17 11
-19 39 -14 18 4 39 12 47 19 19 19 6 49 -19 42 -11 -3 -23 -1 -26 4 -3 5 2 9
11 9 9 0 38 21 65 46 52 49 73 101 71 177 0 25 4 37 13 37 13 0 36 40 51 88
10 34 -2 26 -31 -20z m-140 -215 c23 9 20 -10 -3 -23 -22 -11 -61 -14 -61 -3
0 3 8 15 17 25 12 13 19 15 24 7 4 -7 14 -9 23 -6z m-94 -113 c0 -5 -6 -10
-14 -10 -8 0 -18 5 -21 10 -3 6 3 10 14 10 12 0 21 -4 21 -10z"/>
<path d="M2586 2052 c-9 -15 26 -40 75 -52 50 -13 107 -3 144 24 30 22 13 28
-38 14 -44 -11 -101 -5 -158 17 -10 3 -20 2 -23 -3z"/>
<path d="M2780 1997 c-35 -17 -44 -27 -42 -43 2 -16 -7 -28 -31 -43 -19 -12
-42 -21 -50 -21 -27 0 -51 -45 -37 -69 13 -26 30 -27 30 -2 0 27 26 47 44 32
11 -9 11 -17 2 -36 -8 -19 -19 -25 -43 -25 -34 0 -43 -13 -19 -27 7 -4 15 -15
18 -23 5 -16 74 -24 83 -9 4 5 17 9 29 9 34 0 49 24 44 67 -6 49 9 103 28 103
11 0 14 10 11 46 -2 25 -8 49 -13 54 -5 5 -29 -1 -54 -13z m-30 -143 c0 -9 -5
-14 -12 -12 -18 6 -21 28 -4 28 9 0 16 -7 16 -16z m4 -40 c22 -8 20 -30 -3
-53 -27 -27 -46 -6 -28 32 6 15 13 27 14 27 1 0 8 -3 17 -6z"/>
<path d="M2876 2003 c-13 -13 -5 -79 13 -113 17 -32 72 -80 92 -80 19 0 8 28
-22 56 -38 35 -59 75 -59 108 0 25 -12 40 -24 29z"/>
<path d="M3983 1987 c-73 -5 -133 -13 -133 -16 0 -4 6 -15 13 -24 11 -16 19
-16 127 6 63 13 124 29 135 35 13 7 15 11 5 10 -8 -1 -75 -6 -147 -11z"/>
<path d="M3777 1963 c-4 -3 -7 -14 -7 -23 0 -13 8 -17 29 -16 38 2 47 11 31
31 -13 15 -42 20 -53 8z"/>
<path d="M7635 1695 c-45 -21 -98 -72 -92 -88 4 -11 -6 -13 -47 -9 -53 4 -116
-17 -116 -38 0 -15 16 -12 31 6 9 12 23 14 49 10 50 -8 155 15 155 34 0 9 11
15 31 16 41 2 71 19 79 45 12 38 -34 50 -90 24z m65 -20 c0 -19 -42 -43 -48
-26 -5 15 -29 14 -35 -1 -4 -10 -6 -10 -6 -1 -1 14 46 42 72 43 9 0 17 -7 17
-15z"/>
<path d="M7317 1556 c-21 -6 -35 -14 -32 -17 9 -10 78 6 83 19 4 14 0 14 -51
-2z"/>
<path d="M1965 1153 c4 -10 12 -30 17 -45 5 -16 14 -25 19 -22 5 3 0 23 -11
45 -20 39 -39 55 -25 22z"/>
<path d="M2006 1072 c-3 -5 1 -15 8 -22 8 -6 18 -26 21 -43 6 -28 22 -71 63
-167 10 -23 10 -22 6 10 l-5 35 15 -33 c23 -50 41 -36 41 31 0 68 -22 99 -65
90 -26 -5 -28 -2 -35 35 -7 41 -38 81 -49 64z m134 -190 c0 -21 -4 -31 -11
-26 -6 3 -9 19 -5 35 3 16 1 29 -4 29 -6 0 -10 8 -10 18 1 34 30 -20 30 -56z"/>
<path d="M2401 957 c-12 -26 -21 -55 -19 -65 1 -9 -10 -33 -25 -53 -15 -20
-27 -43 -27 -52 0 -10 -5 -17 -11 -17 -7 0 -8 7 -4 18 5 9 10 33 13 52 2 19
12 44 21 55 24 27 46 84 36 93 -4 4 -10 0 -13 -8 -3 -8 -18 -27 -34 -42 -15
-14 -28 -36 -28 -49 l0 -22 -23 21 c-13 12 -31 22 -40 22 -34 0 -34 -102 0
-136 15 -15 18 -15 28 0 18 25 28 19 20 -11 -10 -42 -23 -50 -45 -28 -20 21
-50 120 -50 167 0 15 -4 30 -10 33 -6 4 -10 -19 -10 -62 0 -42 -5 -76 -13 -87
-13 -18 -15 -18 -37 5 -18 19 -22 20 -16 5 9 -27 49 -75 64 -75 7 -1 12 -17
12 -45 0 -46 17 -106 30 -106 14 0 21 53 12 85 -9 29 -8 30 22 29 51 -2 56 -3
56 -18 0 -8 8 -16 18 -19 12 -3 3 -10 -29 -24 -44 -20 -65 -45 -54 -63 10 -16
74 8 99 36 23 28 25 28 44 11 13 -12 22 -14 26 -8 5 7 13 7 25 -1 14 -8 33 -8
77 1 33 7 82 17 109 23 28 5 68 16 90 23 22 8 49 14 60 12 25 -3 27 26 2 31
-10 2 -37 -4 -59 -13 -37 -14 -42 -15 -50 -1 -20 37 -42 48 -78 43 -53 -7 -90
-34 -90 -64 0 -24 2 -25 43 -20 39 5 40 4 22 -9 -12 -9 -37 -14 -65 -12 -68 5
-66 32 6 97 32 28 53 51 48 51 -6 0 -41 -16 -80 -35 -69 -35 -125 -44 -154
-25 -13 8 -13 12 0 36 19 34 45 46 36 17 -12 -36 18 -48 69 -28 46 17 71 46
61 70 -6 16 -74 37 -90 28 -6 -4 -3 4 7 17 27 38 31 51 19 59 -8 5 -9 17 -1
45 16 58 4 66 -20 13z m-138 -84 c4 -3 2 -12 -5 -20 -8 -10 -8 -17 0 -25 7 -7
12 -19 12 -27 -1 -13 -4 -12 -15 3 -25 33 -17 95 8 69z m192 -84 c10 -16 -25
-49 -52 -49 -30 0 -30 18 0 22 12 2 23 9 23 16 1 6 2 14 3 17 2 9 20 5 26 -6z
m162 -101 c-2 -7 -13 -12 -24 -10 -11 2 -23 -4 -26 -13 -4 -8 -16 -15 -28 -15
-19 0 -20 2 -8 16 24 29 95 47 86 22z m-182 -18 c-3 -5 -11 -10 -16 -10 -6 0
-7 5 -4 10 3 6 11 10 16 10 6 0 7 -4 4 -10z"/>
<path d="M2828 683 c-10 -2 -18 -9 -18 -15 0 -10 68 -2 105 13 14 5 7 8 -25 7
-25 0 -53 -2 -62 -5z"/>
</g>
</svg>
